PathFileType	3	(X/Y/Z)	D:\minhoCalibration\240510\subject1_KPNP\preferred\preferred10.trc
DataRate	CameraRate	NumFrames	NumMarkers	Units	OrigDataRate	OrigDataStartFrame	OrigNumFrames
200.0	200.0	12	10	mm	200.0	588	162	
Frame#	Time	Left_Ankle_Outer1			Left_Ankle_Inner1			Left_Knee_Outer1			Left_Knee_Inner1			Left_Wrist1			Right_Wrist1			Right_Knee_Inner1			Right_Knee_Outer1			Right_Ankle_Inner1			Right_Ankle_Outer1			
		X1	Y1	Z1	X2	Y2	Z2	X3	Y3	Z3	X4	Y4	Z4	X5	Y5	Z5	X6	Y6	Z6	X7	Y7	Z7	X8	Y8	Z8	X9	Y9	Z9	X10	Y10	Z10	
588	2.93	-479.75369	141.36632	-519.28955	-529.3175	147.439	-493.99243	-378.28159	561.30469	-366.448	-486.02792	537.49176	-353.85275	-362.83704	1015.462	-542.66058	-697.51343	1114.1897	-433.60843	-421.97879	900.43854	-81.643684	-533.1377	927.27875	-50.939152	-526.69012	499.00565	98.311615	-604.9231	525.56335	168.68352
589	2.935	-478.33157	140.3201	-520.13556	-528.17999	146.48628	-495.32767	-377.87695	560.30481	-366.78735	-485.57947	536.26355	-355.70197	-362.15045	1015.1422	-540.17871	-698.99792	1110.0521	-435.03397	-429.14359	890.54633	-81.533005	-540.91876	915.81683	-52.396145	-536.70245	482.52042	81.558174	-616.05408	506.39539	150.52147
590	2.94	-476.96103	139.38661	-521.06311	-526.9743	145.5831	-496.62103	-377.06821	559.40021	-366.97556	-485.68747	534.8501	-356.48358	-361.51553	1014.7491	-537.86401	-700.41602	1105.9512	-436.64249	-436.55472	880.534	-81.707855	-549.08051	904.66644	-54.06263	-545.66388	467.00235	63.498669	-627.19165	487.92285	131.36545
591	2.945	-475.59027	138.40457	-521.8147	-525.78094	144.72749	-497.7858	-376.53	558.3006	-367.1702	-485.22751	533.82245	-356.59213	-361.20242	1014.5164	-535.66882	-702.09033	1101.4116	-438.0069	-444.17108	870.60406	-82.245094	-557.16583	893.5025	-56.4897	-555.28821	451.98279	45.461922	-638.29968	470.09811	111.6121
592	2.95	-474.22314	137.54652	-522.53345	-524.50702	143.93985	-498.84518	-375.90332	557.30322	-367.20471	-484.7908	532.57233	-356.77423	-360.8551	1014.0748	-533.50269	-703.5	1096.9092	-439.58041	-451.88434	860.67932	-83.150505	-565.45282	882.55542	-59.418434	-564.09991	437.44339	26.255583	-649.32098	452.85538	91.183746
593	2.955	-472.87234	136.60529	-523.17914	-523.43805	143.37532	-500.08368	-375.27911	556.25006	-367.17545	-483.93124	531.55817	-356.84326	-360.58734	1013.5069	-531.42566	-704.95251	1092.2247	-441.20929	-459.79126	850.81049	-84.289253	-573.70996	871.98828	-62.460163	-573.28876	423.3287	7.1522007	-660.28052	436.40073	69.978691
594	2.96	-471.5571	135.82925	-523.68182	-522.33789	142.61786	-500.97913	-374.64612	555.27563	-366.97623	-483.4747	530.27087	-356.66583	-360.36221	1012.8527	-529.39111	-706.22974	1087.5085	-443.12607	-467.73392	840.97498	-85.732666	-582.02997	861.22797	-66.879852	-582.16907	410.05075	-12.49399	-670.9881	420.60492	48.005474
595	2.965	-470.39642	135.04051	-524.23181	-521.25092	141.90874	-501.72586	-374.03174	554.31818	-366.58563	-482.99066	529.4176	-356.21921	-360.16852	1012.1071	-527.36871	-707.52612	1082.7484	-445.08405	-475.74817	831.04205	-87.367447	-590.67609	850.68964	-71.158386	-590.88281	397.319	-32.600945	-681.26398	405.49939	25.399557
596	2.97	-469.03015	134.35213	-524.65521	-520.46393	141.31778	-502.67899	-373.50937	553.52631	-366.00266	-481.98975	528.30463	-356.11514	-359.96149	1011.3335	-525.43085	-708.71545	1078.1013	-447.16467	-483.65643	821.00732	-89.269211	-599.21893	840.297	-75.939964	-598.84869	385.63486	-53.117767	-691.66241	391.72446	2.2770956
597	2.975	-467.91229	133.82951	-525.04688	-519.48615	140.78751	-503.25977	-373.08688	552.448	-365.52521	-481.75708	527.21277	-355.56116	-359.90576	1010.4702	-523.40619	-709.87146	1073.5957	-449.5127	-491.98022	810.6731	-91.027176	-607.50732	829.83789	-81.110161	-607.01941	374.41864	-73.596878	-701.34509	378.27625	-21.312754
598	2.98	-466.78989	133.24394	-525.36017	-518.55865	140.20241	-503.95889	-372.78952	551.65717	-364.62466	-481.10284	526.27625	-354.83704	-359.80475	1009.7376	-521.45557	-710.97784	1069.3247	-452.01093	-499.91595	800.25098	-93.499451	-615.93646	819.16296	-86.500626	-614.65033	363.50223	-95.037155	-710.80658	365.82687	-45.340611
599	2.985	-465.7561	132.78268	-525.68036	-517.69354	139.77908	-504.64749	-372.6239	550.89008	-363.6066	-480.55765	525.45111	-354.56262	-359.85001	1009.0431	-519.5329	-711.54865	1065.3502	-454.73914	-507.93433	789.75525	-96.291222	-624.4964	808.67059	-91.633995	-621.45276	354.26465	-116.62534	-719.79956	354.24908	-69.748131
